<svg xmlns="http://www.w3.org/2000/svg" width="128" height="128" viewBox="0 0 64 64">
  <defs>
    <linearGradient id="s-grad" x1="0%" y1="0%" x2="100%" y2="100%">
      <stop offset="0%" stop-color="#22d3ee" />
      <stop offset="100%" stop-color="#a855f7" />
    </linearGradient>
    <linearGradient id="s-glow" x1="0%" y1="0%" x2="100%" y2="0%">
      <stop offset="0%" stop-color="#0ea5e9" stop-opacity="0.45" />
      <stop offset="100%" stop-color="#8b5cf6" stop-opacity="0.45" />
    </linearGradient>
  </defs>
  <rect width="64" height="64" rx="16" fill="#0b1220" />
  <rect x="6" y="6" width="52" height="52" rx="13" fill="#111c30" />
  <path d="M44.2 15.2c-3-2.4-7-3.7-11.7-3.7-9.7 0-16.1 4.8-16.1 12 0 6.2 4.1 9.3 11.5 11.7l4.6 1.5c3.9 1.2 5.6 2.5 5.6 4.9 0 2.6-2.5 4.2-6.6 4.2-4.3 0-7.6-1.4-10.2-4.1l-7.3 7c3.9 4 10.3 6.9 18.2 6.9 10.2 0 17.3-5.1 17.3-13.1 0-6.1-3.9-9.8-11.2-12.1l-4.9-1.6c-3.6-1.1-5.2-2.2-5.2-4.3 0-2.2 1.9-3.5 5.2-3.5 3.5 0 6.2 1.3 8.3 3.2l6.4-6.1Z" fill="url(#s-grad)" />
  <path d="M20 48.1c4 3.2 9 5 14.7 5 6.4 0 11.7-2.1 15.3-5.7" fill="none" stroke="url(#s-glow)" stroke-width="3" stroke-linecap="round" />
</svg>
