<svg xmlns="http://www.w3.org/2000/svg" width="128" height="128" viewBox="0 0 64 64">
	<defs>
		<linearGradient id="s-grad" x1="0%" y1="0%" x2="100%" y2="100%">
			<stop offset="0%" stop-color="#22d3ee" />
			<stop offset="100%" stop-color="#a855f7" />
		</linearGradient>
		<linearGradient id="s-glow" x1="0%" y1="0%" x2="100%" y2="0%">
			<stop offset="0%" stop-color="#0ea5e9" stop-opacity="0.4" />
			<stop offset="100%" stop-color="#8b5cf6" stop-opacity="0.4" />
		</linearGradient>
	</defs>
	<rect width="64" height="64" rx="16" fill="#0b1220" />
	<rect x="6" y="6" width="52" height="52" rx="13" fill="#111c30" />
	<path d="M44.5 14c-2.9-2.3-6.9-3.6-11.6-3.6-9.5 0-15.9 4.7-15.9 11.7 0 6 4 9.1 11.3 11.4l4.6 1.5c3.8 1.2 5.5 2.4 5.5 4.7 0 2.5-2.4 4.1-6.5 4.1-4.1 0-7.3-1.3-9.9-3.9l-7.2 6.9C19 51 25.2 53.8 32.9 53.8c10 0 17-5 17-12.7 0-5.9-3.8-9.5-11-11.7l-4.8-1.6c-3.5-1.1-5.1-2.1-5.1-4.1 0-2.1 1.9-3.4 5.1-3.4 3.4 0 6 1.3 8.1 3.1l6.3-6z" fill="url(#s-grad)" />
	<path d="M20 47.5c3.9 3.1 8.8 4.8 14.4 4.8 6.2 0 11.4-2 14.9-5.5" fill="none" stroke="url(#s-glow)" stroke-width="3" stroke-linecap="round" />
</svg>
 